<?xml version="1.0" encoding="UTF-8" standalone="no"?><!DOCTYPE svg PUBLIC "-//W3C//DTD SVG 1.1//EN" "http://www.w3.org/Graphics/SVG/1.1/DTD/svg11.dtd"><svg width="100%" height="100%" viewBox="0 0 380 64" version="1.1" xmlns="http://www.w3.org/2000/svg" xmlns:xlink="http://www.w3.org/1999/xlink" xml:space="preserve" xmlns:serif="http://www.serif.com/" style="fill-rule:evenodd;clip-rule:evenodd;stroke-linejoin:round;stroke-miterlimit:2;"><rect id="Plan-de-travail1" serif:id="Plan de travail1" x="0" y="0" width="380" height="64" style="fill:none;"/><path d="M13,31c0.549,0 1,-0.451 1,-1l0,-3c0,-0.549 -0.451,-1 -1,-1c-0.549,0 -1,0.451 -1,1l0,3c0,0.549 0.451,1 1,1Z" style="fill:#dc2626;fill-rule:nonzero;stroke:#dc2626;stroke-width:1px;"/><path d="M22,4.5c0.549,0 1,-0.451 1,-1l0,-2c0,-0.549 -0.451,-1 -1,-1c-0.549,0 -1,0.451 -1,1l0,2c0,0.549 0.451,1 1,1Z" style="fill:#dc2626;fill-rule:nonzero;stroke:#dc2626;stroke-width:1px;"/><path d="M35,7c0.549,0 1,-0.451 1,-1l0,-2c0,-0.549 -0.451,-1 -1,-1c-0.549,0 -1,0.451 -1,1l0,2c0,0.549 0.451,1 1,1Z" style="fill:#dc2626;fill-rule:nonzero;stroke:#dc2626;stroke-width:1px;"/><path d="M12,38c0,0.549 0.451,1 1,1c0.549,0 1,-0.451 1,-1l0,-3c0,-0.549 -0.451,-1 -1,-1c-0.549,0 -1,0.451 -1,1l0,3Z" style="fill:#dc2626;fill-rule:nonzero;stroke:#dc2626;stroke-width:1px;"/><path d="M59.974,53.844c0.006,-0.115 0.026,-0.228 0.026,-0.344c0,-2.694 -1.588,-5.173 -4.471,-6.982c-0.154,-0.091 -0.33,-0.14 -0.51,-0.14c-0.548,0 -1,0.452 -1,1c0,0.335 0.169,0.649 0.448,0.834c1.333,0.77 2.408,1.919 3.088,3.3c-2.176,-0.829 -5.469,-0.656 -9.817,0.523c-7.039,1.907 -10.183,-1.657 -11.161,-3.164c2.742,-1.962 6.053,-2.971 9.423,-2.871c1.601,-0.005 3.196,0.202 4.742,0.618c0.086,0.023 0.174,0.035 0.263,0.035c0.549,0 1.001,-0.451 1.001,-1c0,-0.45 -0.303,-0.847 -0.737,-0.965c-1.395,-0.374 -2.826,-0.594 -4.269,-0.656c0.338,-1.01 0.589,-2.047 0.751,-3.1l3.114,-0.283c4.631,-0.396 8.308,-4.171 8.582,-8.811l0.553,-6.757c0.002,-0.027 0.003,-0.054 0.003,-0.081c0,-0.549 -0.451,-1 -1,-1l-0.003,0l-11,0l0,-3c0,-0.549 -0.451,-1 -1,-1l-17,0l0,-1c0,-1.097 0.903,-2 2,-2c2.194,0 4,-1.806 4,-4l0,-3c0,-0.549 -0.451,-1 -1,-1c-0.549,0 -1,0.451 -1,1l0,3c0,1.097 -0.903,2 -2,2c-2.194,0 -4,1.806 -4,4l0,1l-11,0l0,-4c0,-1.097 0.903,-2 2,-2c2.194,0 4,-1.806 4,-4l0,-3c0,-0.549 -0.451,-1 -1,-1c-0.549,0 -1,0.451 -1,1l0,3c0,1.097 -0.903,2 -2,2c-2.194,0 -4,1.806 -4,4l0,4l-10,0c-0.549,0 -1,0.451 -1,1l0,4c0,0.549 0.451,1 1,1c0.549,0 1,-0.451 1,-1l0,-3l40,0l0,16c-0.002,2.065 -0.382,4.111 -1.121,6.039c-3.682,0.096 -7.226,1.424 -10.064,3.772c-0.118,0.068 -0.22,0.161 -0.3,0.271c-1.544,1.385 -2.454,3.345 -2.515,5.418c0.004,0.399 0.045,0.797 0.122,1.189c-1.029,0.199 -2.074,0.303 -3.122,0.311l-6,0c-9.322,-0.01 -16.99,-7.678 -17,-17l0,-9c0,-0.549 -0.451,-1 -1,-1c-0.549,0 -1,0.451 -1,1l0,9c0.012,10.419 8.581,18.988 19,19l6,0c1.273,-0.002 2.542,-0.132 3.789,-0.386c1.067,1.901 2.69,3.432 4.65,4.386l-34.439,0c-0.549,0 -1,0.451 -1,1c0,0.549 0.451,1 1,1l42,0c0.049,-0.006 0.098,-0.016 0.146,-0.029c0.284,0.012 0.566,0.029 0.854,0.029c7.33,0 13.351,-3.844 13.942,-8.716c0.044,-0.142 0.055,-0.293 0.032,-0.44Zm-2.058,-27.844l-0.462,5.7c-0.212,3.664 -3.113,6.647 -6.769,6.961l-2.729,0.248c0.014,-0.3 0.044,-0.6 0.044,-0.909l0,-12l9.916,0Zm-11.916,35c-6.617,0 -12,-3.364 -12,-7.5c0.022,-1.165 0.431,-2.291 1.161,-3.2c1.51,2.054 5.417,5.746 13.1,3.663c6.75,-1.831 9.19,-0.614 9.69,0.129c-0.487,3.86 -5.651,6.908 -11.951,6.908Z" style="fill:#dc2626;fill-rule:nonzero;stroke:#dc2626;stroke-width:1px;"/><g transform="matrix(1,0,0,1,8.58487,30.0073)"><text x="70.175px" y="27.593px" style="font-family:'JosefinSans-Regular', 'Josefin Sans';font-size:64px;fill:#111827;">de<tspan x="140.511px " y="27.593px ">v</tspan>-c</text><text x="220.767px" y="27.593px" style="font-family:'JosefinSans-Italic', 'Josefin Sans';font-style:italic;font-size:64px;fill:#111827;">off<tspan x="302.943px " y="27.593px ">e</tspan>e</text></g></svg>